<?xml version="1.0" standalone="no"?>
<!DOCTYPE svg PUBLIC "-//W3C//DTD SVG 1.1//EN" "http://www.w3.org/Graphics/SVG/1.1/DTD/svg11.dtd" >
<svg xmlns="http://www.w3.org/2000/svg">
<metadata>
This is a custom SVG webfont generated by Font Squirrel.
Copyright   : c Isis Font Foundry
</metadata>
<defs>
<font id="StargateRegular" horiz-adv-x="2048" >
<font-face units-per-em="2048" ascent="1638" descent="-410" />
<missing-glyph horiz-adv-x="569" />
<glyph unicode=" "  horiz-adv-x="569" />
<glyph unicode="&#x09;" horiz-adv-x="569" />
<glyph unicode="&#xa0;" horiz-adv-x="569" />
<glyph unicode="!" horiz-adv-x="681" d="M227 115q0 -57 30 -96t85 -39t85 38.5t30 96.5q0 55 -30 94t-85 39t-85 -39t-30 -94zM229 1303q0 -6 2 -17v-20l66 -748q0 -63 45 -129q45 61 45 129v6l66 762q2 10 2 17q0 141 -113 141t-113 -141z" />
<glyph unicode="&#x22;" horiz-adv-x="759" d="M106 1341l3 -6v-4l67 -401h41l70 411q0 33 -29 56.5t-61 23.5q-33 0 -62 -23.5t-29 -56.5zM479 1331l68 -401h41l69 411q0 33 -28.5 56.5t-61.5 23.5t-60.5 -23.5t-27.5 -56.5v-10z" />
<glyph unicode="#" horiz-adv-x="1138" d="M68 424h219l-68 -424h119l68 424h274l-64 -424h119l64 424h223v108h-205l41 263h215v108h-199l62 397h-119l-61 -397h-273l64 397h-119l-63 -397h-242v-108h225l-43 -263h-237v-108zM424 532l43 263h272l-41 -263h-274z" />
<glyph unicode="$" horiz-adv-x="1138" d="M100 61q180 -82 414 -81h47v-195h72v201q301 47 377 223q29 70 28 166q0 150 -98 241q-76 68 -244 127l-63 23v508q147 0 201 -84q33 -55 40 -176q2 -41 5 -51h106v313q-172 66 -352 72v96h-72v-96q-178 -6 -287 -95q-121 -98 -120 -270q0 -156 116 -244q76 -59 279 -129 q4 -2 12 -4v-559q-14 0 -33 -2h-26q-172 0 -228 98q-39 61 -43 205q-2 41 -4 62h-127v-349zM319 1040q0 215 242 234v-483l-86 30q-74 27 -117 86q-39 51 -39 133zM633 55v527q233 -78 233 -269q0 -104 -64.5 -175t-168.5 -83z" />
<glyph unicode="%" d="M168 1047q0 -172 88 -267q90 -100 260 -100t259 98.5t89 268.5q0 172 -89 269t-259 97t-259 -98t-89 -268zM328 1047q0 215 94 284q37 27 94 27q111 0 156 -101q33 -78 33 -210q0 -311 -189 -312q-154 0 -180 199q-8 54 -8 113zM530 -147h101l799 1673h-101zM1108 346 q0 -172 88 -266q90 -100 260 -100t259 98t89 268q0 172 -89 269.5t-259 97.5t-259 -98.5t-89 -268.5zM1268 346q0 215 94 285q37 27 94 26q111 0 156 -100q33 -78 33 -211q0 -311 -189 -311q-154 0 -180 198q-8 54 -8 113z" />
<glyph unicode="&#x26;" horiz-adv-x="1366" d="M86 272q0 -125 98.5 -208.5t225.5 -83.5q248 0 413 184l150 -168q102 6 164 4q66 2 161 -4v74q-145 4 -211 53l-167 176l153 254q37 61 67.5 80.5t104.5 28.5q23 2 53 6v59q-111 -4 -243 -4q-135 0 -246 4v-59q174 -8 174 -56q0 -2 -2 -4v-6q-27 -98 -107 -231l-6 -11 l-309 340q8 6 39 29q121 88 160 137q70 82 69 193q0 119 -84 184q-78 57 -200 57q-143 0 -229.5 -80.5t-86.5 -222.5q0 -139 152 -327q-180 -104 -256 -258q-29 -55 -35 -113v-14zM258 328q0 182 164 290l352 -401l-18 -22q-102 -125 -250 -125q-106 0 -177 76t-71 182z M375 1071q0 74 43 119t117 45q78 0 118.5 -54.5t40.5 -133.5q0 -104 -47 -173q-37 -51 -135 -120q-137 163 -137 317z" />
<glyph unicode="'" horiz-adv-x="425" d="M125 1341l2 -6v-4l68 -401h41l69 411q0 33 -28.5 56.5t-61.5 23.5t-61.5 -23.5t-28.5 -56.5z" />
<glyph unicode="(" horiz-adv-x="681" d="M162 612q0 -430 67 -630q90 -274 369 -297v57q-172 66 -229 309q-43 180 -43 555q0 403 43 576q55 217 229 286v58q-279 -18 -369 -287q-67 -195 -67 -627z" />
<glyph unicode=")" horiz-adv-x="681" d="M90 -258v-57q279 23 371 297q66 201 65 630q0 432 -65 627q-92 268 -371 287v-58q174 -70 229 -286q43 -172 43 -576q0 -375 -43 -557q-57 -241 -229 -307z" />
<glyph unicode="*" horiz-adv-x="1138" d="M201 1120l315 -80l-242 -219l123 -100l170 283l170 -283l123 100l-242 219l316 80l-72 133l-260 -155l45 315h-160l45 -315l-260 155z" />
<glyph unicode="+" horiz-adv-x="1241" d="M104 453h451v-455h131v455h451v131h-451v448h-131v-448h-451v-131z" />
<glyph unicode="," horiz-adv-x="569" d="M162 -219l33 -55q242 131 241 358q0 57 -32.5 111.5t-88.5 54.5q-57 0 -89.5 -38t-32.5 -97q0 -51 31.5 -84t82.5 -33h15q10 2 14 2q0 -68 -53 -130t-121 -89z" />
<glyph unicode="-" horiz-adv-x="681" d="M90 432h502v152h-502v-152z" />
<glyph unicode="." horiz-adv-x="569" d="M160 115q0 -57 29.5 -96t84.5 -39t85 38.5t30 96.5q0 57 -29.5 96t-85.5 39q-55 0 -84.5 -39t-29.5 -96z" />
<glyph unicode="/" horiz-adv-x="796" d="M78 -20h125l518 1546h-127z" />
<glyph unicode="0" horiz-adv-x="1138" d="M109 641q0 -227 26 -340q47 -193 189 -270q92 -51 243 -51q287 0 387 192q74 145 74 469q0 229 -27 342q-47 193 -188 268q-94 49 -246 49q-285 0 -383 -190q-75 -145 -75 -469zM313 641q0 291 41 418q53 176 213 176q219 0 248 -356q8 -98 8 -238q0 -285 -41 -418 q-53 -176 -215 -176q-160 0 -213 178q-41 133 -41 416z" />
<glyph unicode="1" horiz-adv-x="1138" d="M166 938q123 31 340 205l20 16v-954q0 -100 -35.5 -119.5t-220.5 -19.5v-70q104 2 170 2q49 0 111 2h67q90 2 332 -4v70q-174 0 -206.5 20t-32.5 119v1075h-166q-195 -172 -379 -229v-113z" />
<glyph unicode="2" horiz-adv-x="1138" d="M137 0h828v352h-72l-6 -43q-10 -94 -40 -121.5t-126 -27.5h-461l223 211q29 27 68 61q170 150 264 266q133 162 133 301q0 160 -121 236q-106 66 -274 65q-252 0 -346 -139q-41 -59 -41 -125v-14q-2 -10 -2 -21q0 -84 39 -83h71q51 0 52 71q0 4 2 10v7q2 8 18 86 q10 47 37 82q45 59 162 59q102 0 153.5 -63.5t51.5 -168.5q0 -154 -125 -327q-90 -123 -260 -293q-33 -33 -35 -37l-193 -192v-152z" />
<glyph unicode="3" horiz-adv-x="1138" d="M143 266q4 -145 109 -221q94 -66 246 -65q342 0 432 196q35 74 35 182q0 129 -65.5 218.5t-190.5 113.5v4q221 61 221 289q0 160 -113 244q-100 74 -266 73q-379 0 -379 -305q0 -45 45 -45h70q4 -2 6 -2q35 0 35 43l6 33q12 209 182 209q6 0 14 -2h17q190 -14 190 -248 q0 -145 -53 -201.5t-201 -64.5q-23 -2 -88 8v-90q68 10 123 10q141 0 199 -74q49 -63 49 -211q0 -315 -254 -315q-117 0 -160 68q-27 43 -33 125q-2 20 -4 28q0 47 -8 62q-12 23 -53 22h-49q-64 0 -62 -84z" />
<glyph unicode="4" horiz-adv-x="1138" d="M57 373h584v-168q0 -92 -40 -118t-195 -26v-65q96 2 157 2h101q53 2 61 2h63q55 -2 84 -2l148 -2v65q-145 0 -178 22.5t-33 121.5v168h190l21 133h-211v774h-186q-260 -395 -566 -809v-98zM199 506l442 659v-659h-442z" />
<glyph unicode="5" horiz-adv-x="1138" d="M135 260q12 -281 397 -280q209 0 322 108.5t113 314.5q0 434 -394 435q-182 0 -276 -103v385h545l28 29q2 4 13 27q35 78 35 94q0 10 -9 10h-714q18 -274 16 -385l-2 -143q0 -27 -4 -144l84 -8q63 147 219 148q145 0 207 -101q51 -84 51 -244q0 -231 -121 -319 q-51 -37 -113 -39q-219 -4 -225 215q-2 47 -8 62q-12 23 -53 22h-49q-66 0 -62 -84z" />
<glyph unicode="6" horiz-adv-x="1138" d="M113 670q0 -342 61 -484q90 -207 379 -206q467 0 467 438q0 408 -406 407q-156 0 -297 -114q0 246 41 358q55 160 228 160q102 0 145 -49q27 -33 41 -103q2 -10 6 -26v-9l-2 -6q0 -37 39 -43h62q63 0 61 29q-10 279 -354 278q-279 0 -383 -182q-88 -149 -88 -448z M315 426q0 156 54 231q63 90 213 91q137 0 194 -105q43 -84 43 -237q0 -254 -112 -328q-49 -33 -123 -33q-166 0 -224 109q-45 86 -45 272z" />
<glyph unicode="7" horiz-adv-x="1138" d="M190 913h68q0 139 37 177q29 29 145 28h434q-4 -6 -86 -133l-165 -260q-156 -252 -256 -432q-74 -131 -158 -293h201q178 420 307 674q135 266 301 497v109h-828v-367z" />
<glyph unicode="8" horiz-adv-x="1138" d="M115 365q0 -385 448 -385q449 0 449 385q0 283 -279 346q225 86 225 293q0 152 -120 229q-109 68 -275 67q-270 0 -362 -161q-33 -57 -33 -135q0 -207 225 -293q-278 -63 -278 -346zM313 344q0 225 127 295q47 27 117 27h6q133 0 195 -99q49 -82 49 -223 q0 -297 -250 -297q-244 0 -244 297zM356 997q0 238 203 238q211 0 211 -238q0 -248 -207 -252t-207 252z" />
<glyph unicode="9" horiz-adv-x="1138" d="M119 856q0 -186 96 -296.5t281 -110.5q197 0 317 116l6 -4q0 2 0 -16q-2 -20 -2 -43q-2 -109 -6 -156q-8 -88 -33 -153q-55 -147 -225 -148q-102 0 -145 51q-27 29 -39 105q-6 35 -13 47q-8 31 -45 37h-57q-49 0 -49 -76q0 -111 110 -174q92 -55 211 -55q299 0 404 163 q90 141 94 473q2 233 -20 345q-41 199 -175 282q-94 57 -243 57q-221 2 -344 -111.5t-123 -332.5zM317 868q0 260 121 332q51 29 129 29q143 0 205 -96q51 -84 51 -244q0 -178 -47 -258q-59 -104 -219 -105q-137 0 -192 107q-48 85 -48 235z" />
<glyph unicode=":" horiz-adv-x="569" d="M184 115q0 -57 30 -96t85 -39t85 38.5t30 96.5q0 57 -30 96t-85 39t-85 -39t-30 -96zM184 817q0 -57 30 -96t85 -39t85 39t30 96t-30 96t-85 39t-85 -39t-30 -96z" />
<glyph unicode=";" horiz-adv-x="569" d="M154 -219l32 -55q242 131 242 358q0 57 -33 111.5t-88 54.5q-57 0 -90 -38t-33 -97q0 -51 32 -84t83 -33h14q10 2 15 2q0 -68 -53 -130t-121 -89zM184 817q0 -57 30 -96t85 -39t85 39t30 96t-30 96t-85 39t-85 -39t-30 -96z" />
<glyph unicode="&#x3c;" horiz-adv-x="1241" d="M100 463l1043 -479v127l-877 407l877 408v127l-1043 -480v-110z" />
<glyph unicode="=" horiz-adv-x="1241" d="M104 254h1033v129h-1033v-129zM104 653h1033v129h-1033v-129z" />
<glyph unicode="&#x3e;" horiz-adv-x="1241" d="M98 -16l1043 479v110l-1043 480v-127l877 -408l-877 -407v-127z" />
<glyph unicode="?" horiz-adv-x="909" d="M104 1149q0 -39 27 -47q8 -2 64 -2q57 0 59 22q6 127 41 183q45 74 158 77q86 2 137 -63q43 -59 43 -150q0 -131 -51 -190q-55 -66 -185 -66q-8 0 -24 2h-25l41 -434q8 -90 43 -90q31 0 43 84l62 397q127 12 203.5 86t76.5 199q0 143 -108 219q-94 68 -244 68 q-154 0 -250 -70q-111 -78 -111 -225zM317 115q0 -57 30 -96t85 -39t85 38.5t30 96.5q0 57 -30 96t-85 39t-85 -39t-30 -96z" />
<glyph unicode="@" horiz-adv-x="1529" d="M59 694q0 -313 234 -518q223 -197 536 -196q203 0 380 106.5t274 284.5h-125q-193 -289 -518 -289q-285 0 -476.5 175t-191.5 452q0 276 186.5 454t468.5 178q244 0 404 -145q154 -143 153 -340q0 -199 -112 -354q-104 -147 -205 -148q-55 0 -55 62q0 25 8 55l158 573 h-181l-34 -135h-5q-27 156 -180 156q-174 0 -308 -145.5t-134 -317.5q0 -125 75.5 -211t198.5 -86q82 0 144 47q41 31 106 115q4 -74 44 -123t112 -49q168 0 322.5 170t154.5 395q0 264 -215 430q-197 154 -465 154q-233 0 -421.5 -122t-274.5 -335q-58 -137 -58 -293z M518 541q0 133 84 293q90 176 211 176q53 0 84 -52q25 -41 25 -100q0 -141 -72 -305q-86 -193 -207 -193q-125 1 -125 181z" />
<glyph unicode="A" horiz-adv-x="1593" d="M41 -4q106 4 242 4q135 0 241 -4v74q-80 0 -110 10q-59 18 -60 80q0 18 6 43q193 504 392 1026l239 -625l133 -342q2 -6 9 -20q25 -59 24 -92q0 -49 -74 -68q-49 -12 -104 -12v-74q127 4 283 4q154 0 280 -4v70q-102 0 -162 77q-35 43 -71 136l-4 10l-431 1124h-135 l-440 -1069q-2 -6 -16 -37l-50 -112q-23 -47 -36 -66q-43 -51 -123 -55q-18 -2 -33 -4v-74zM590 1692q0 -86 60.5 -146.5t146.5 -60.5t146.5 60.5t60.5 146.5t-60.5 146t-146.5 60t-146.5 -60t-60.5 -146zM674 1692q0 51 35.5 87t87.5 36q51 0 87 -36t36 -87q0 -49 -37 -86 t-86 -37t-86 37t-37 86z" />
<glyph unicode="B" horiz-adv-x="1366" d="M61 -4q127 4 289 4q51 0 154.5 -2t154.5 -2h5q250 0 370 61q100 51 142 140q35 74 34 198q0 315 -327 353v4q289 49 288 323q0 213 -129 287q-102 55 -333 55q-23 0 -174 -2l-185 -2q-96 0 -289 4v-69q139 0 172 -27q25 -25 25 -113v-1003q0 -92 -25 -113 q-33 -27 -172 -26v-70zM442 84v621h238q178 0 251 -66t73 -240q0 -180 -74 -249q-57 -53 -213 -66q-75 -7 -126 -7q-21 0 -38 1zM442 782v547q184 10 217 10q174 0 241 -53t67 -227q0 -276 -246 -277h-279z" />
<glyph unicode="C" horiz-adv-x="1366" d="M72 717q0 -371 147 -547q156 -190 516 -190q203 0 441 51q72 14 104 30v363h-117q-8 -106 -18 -156q-20 -94 -62 -139q-70 -80 -295 -80q-299 0 -411 205q-92 166 -92 498q0 283 106 438q121 178 387 178q199 0 279 -51q90 -57 106 -223l6 -60h111v330q-270 80 -502 80 q-369 0 -537.5 -178t-168.5 -549z" />
<glyph unicode="D" horiz-adv-x="1478" d="M35 -4q127 4 289 4q47 0 215 -4q66 -1 119 -1t94 1q174 4 311 55q229 86 287 355q27 131 26 327q0 301 -89 461t-273 201q-102 23 -244 22q10 0 -176 -2l-270 -2q-96 0 -289 4v-69q139 0 172 -27q25 -25 24 -113v-1003q0 -92 -24 -113q-33 -27 -172 -26v-70zM416 88v1235 q139 16 276 16q311 0 406 -184q47 -94 61 -240q6 -68 6 -247q0 -336 -108 -459q-117 -129 -434 -129q-101 0 -207 8z" />
<glyph unicode="E" horiz-adv-x="1251" d="M31 0h1112v418h-109q-12 -113 -16 -139q-16 -96 -43 -132q-45 -59 -197 -59h-366v617h159q135 0 177 -29q25 -18 30 -103q2 -31 8 -79h91v491h-91q0 -145 -36.5 -178t-178.5 -33h-159v565h346q190 0 229 -41q23 -27 31 -73q16 -98 16 -164v-4h109v360h-1112v-69 q139 0 172 -27q25 -25 24 -113v-999q0 -92 -24 -113q-33 -27 -172 -26v-70z" />
<glyph unicode="F" horiz-adv-x="1251" d="M61 -4q127 4 289 4t289 -4v70q-137 0 -170 28q-27 20 -27 111v495h160q135 0 176 -28q25 -18 31 -103q2 -31 8 -80h90v492h-90q0 -145 -37 -178t-178 -33h-160v565h346q190 0 230 -41q23 -27 31 -73q16 -98 16 -164v-4h109v360h-1113v-70q139 0 172 -26q25 -25 25 -113 v-999q0 -92 -25 -113q-33 -27 -172 -26v-70z" />
<glyph unicode="G" horiz-adv-x="1478" d="M76 702q0 -365 147 -538q160 -184 518 -184q285 0 562 90q-8 27 -9 82v190q0 86 26 112.5t134 30.5v68h-43q-45 -2 -80 -2q-12 0 -63 -2h-64q-139 0 -340 4v-70q180 0 213 -20.5t33 -120.5v-209q-139 -80 -309 -80q-289 0 -410 176q-102 150 -102 465q0 307 98 473 q119 201 406 201q219 0 288 -59q76 -66 93 -275h120v330q-269 80 -481 80h-20q-373 -6 -545 -186.5t-172 -555.5z" />
<glyph unicode="H" horiz-adv-x="1593" d="M49 -4q127 4 289 4t289 -4v70q-125 0 -158 20q-39 25 -39 119v500h731v-500q0 -66 -16 -94q-20 -35 -78 -41q-35 -4 -102 -4v-70q127 4 288 4q162 0 289 -4v70q-125 0 -158 20q-39 25 -38 119v1003q0 127 94 138q35 2 102 2v69q-127 -4 -289 -4t-288 4v-69q117 0 145 -15 q51 -25 51 -125v-420h-731v420q0 100 51 125q29 14 146 15v69q-127 -4 -289 -4t-289 4v-69q131 0 158 -21q39 -23 39 -119v-1003q0 -66 -17 -94q-20 -35 -77 -41q-35 -4 -103 -4v-70z" />
<glyph unicode="I" horiz-adv-x="681" d="M53 -4q127 4 289 4t289 -4v70q-125 0 -158 20q-39 25 -39 119v1003q0 100 51 125q29 14 146 15v69q-127 -4 -289 -4t-289 4v-69q131 0 158 -21q39 -23 39 -119v-1003q0 -66 -17 -94q-20 -35 -77 -41q-35 -4 -103 -4v-70z" />
<glyph unicode="J" horiz-adv-x="681" d="M-27 -371v-43q250 33 371 209q109 162 109 430v983q0 100 51 125q29 14 145 15v69q-127 -4 -289 -4t-288 4v-69q131 0 157 -21q39 -23 39 -119v-987q0 -178 -16 -268q-29 -150 -117 -236q-62 -59 -162 -88z" />
<glyph unicode="K" horiz-adv-x="1478" d="M66 -4q127 4 288 4q162 0 289 -4v70q-125 0 -158 20q-39 25 -39 119v497q461 -434 641 -673l25 -33q80 5 136 5q19 0 34 -1q16 1 34 1q56 0 136 -5v70q-135 0 -229 108l-15 16q-117 121 -415 433l-164 174l428 397q137 127 235 149q43 8 111 15v59q-61 0 -184 -4 q10 0 -93 2q-33 0 -94 2v-41q29 -4 29 -26q0 -8 -6 -21l-596 -569q-10 -10 -13 -10v458q0 100 52 125q29 14 145 15v69q-127 -4 -289 -4t-288 4v-69q131 0 157 -21q39 -23 39 -119v-1003q0 -66 -16 -94q-20 -35 -78 -41q-35 -4 -102 -4v-70z" />
<glyph unicode="L" horiz-adv-x="1251" d="M66 0h1108v416h-109q-12 -113 -16 -142q-16 -96 -43 -133q-43 -57 -197 -57h-363v1124q0 92 29 116t168 24v69q-127 -4 -289 -4t-288 4v-69q139 0 172 -27q25 -25 24 -113v-1003q0 -92 -24 -113q-33 -27 -172 -26v-66z" />
<glyph unicode="M" horiz-adv-x="1933" d="M47 -4q106 4 240 4q133 0 239 -4v70q-111 0 -141 16q-47 25 -47 123v960h4l555 -1165q6 -14 25 -14q14 0 22 16l555 1186h4v-983q0 -66 -16 -94q-20 -35 -78 -41q-35 -4 -102 -4v-70q127 4 288 4q162 0 289 -4v70q-125 0 -158 20q-39 25 -38 119v1003q0 100 51 125 q29 14 145 15v69q-84 -5 -146 -4h-38q-18 -1 -39 0q-61 0 -145 4l-547 -1141l-557 1141q-84 -5 -145 -4h-38q-17 -1 -37 0q-60 0 -145 4v-69q111 0 141 -17q47 -27 48 -123v-1003q0 -98 -48 -123q-29 -16 -141 -16v-70z" />
<glyph unicode="N" horiz-adv-x="1593" d="M43 -4q106 4 240 4q133 0 239 -4v70q-111 0 -141 16q-47 25 -47 123v991l905 -1196h133v1208q0 96 32 118t144 22v69q-102 -4 -233 -4t-234 4v-69q113 0 142 -17q47 -25 47 -123v-962l-877 1171q-80 -5 -138 -4h-36q-17 -1 -36 0q-58 0 -140 4v-69q111 0 141 -17 q47 -27 47 -123v-1003q0 -98 -47 -123q-29 -16 -141 -16v-70z" />
<glyph unicode="O" horiz-adv-x="1593" d="M90 713q0 -395 154 -561q158 -172 547 -172q406 0 557 172q143 162 143 561q0 393 -152.5 562t-547.5 169t-548 -169t-153 -562zM299 713q0 303 94 465q115 195 398 194q283 0 397 -194q94 -162 94 -465q0 -213 -41 -344q-57 -184 -205 -265q-98 -53 -245 -53 q-283 0 -398 199q-94 160 -94 463z" />
<glyph unicode="P" horiz-adv-x="1251" d="M39 -4q127 4 289 4t288 -4v70q-137 0 -170 28q-27 20 -26 111v424h188q287 0 404 73q145 90 145 357q0 201 -104 284q-92 74 -291 74h-10q-51 0 -213 -2q-131 -2 -211 -2q-162 0 -289 4v-69q139 0 172 -27q25 -25 25 -113v-1003q0 -92 -25 -113q-33 -27 -172 -26v-70z M420 700v643h201q193 0 253 -49q78 -66 78 -272q0 -209 -116 -274q-84 -47 -316 -48h-100z" />
<glyph unicode="Q" horiz-adv-x="1593" d="M88 668q2 -287 107 -455q115 -186 374 -219l-2 -2q-47 -45 -121 -119l46 -41l24 25q10 6 37 30q100 86 156 86q16 0 32 -6q145 -57 359 -194q221 -143 358 -195l234 115l-27 43q-12 -4 -25 -6q-72 -18 -88 -19q-41 0 -155 60q-55 29 -226 129l-110 65q-25 14 -51 27v4 q332 14 440 383q41 137 41 334q0 430 -186 594q-158 137 -504 137q-410 0 -562 -177q-151 -175 -151 -588v-11zM297 762q0 436 272 563q100 47 244 47q254 0 367 -180q96 -156 102 -426q1 -24 1 -47q0 -424 -177 -574q-80 -68 -209 -84l-18 9q-61 29 -95 28q-51 0 -125 -37 q-225 43 -303 261q-59 157 -59 440z" />
<glyph unicode="R" horiz-adv-x="1366" d="M41 -4q127 4 289 4t288 -4v70q-137 0 -169 28q-27 20 -27 111v504q111 0 151.5 -14.5t206.5 -260.5q117 -174 281 -438q49 0 149 4q49 0 148 -4v70q-104 6 -187 116l-12 17q-66 88 -184 268l-111 168q-47 70 -67 102q362 41 362 361q0 205 -121 270q-92 49 -321 49 q-109 0 -258 -2l-129 -2q-96 0 -289 4v-69q139 0 172 -27q25 -25 25 -113v-1003q0 -92 -25 -113q-33 -27 -172 -26v-70zM422 778v559q12 0 78 2q121 4 153 4q164 0 231.5 -59t67.5 -219q0 -188 -127 -248q-90 -43 -305 -43q-69 0 -98 4z" />
<glyph unicode="S" horiz-adv-x="1251" d="M127 68q197 -88 442 -88q393 0 516 219q45 82 45 202q0 162 -106 258q-84 74 -260 138l-236 84q-80 29 -125 90q-41 55 -41 143q0 129 87 195q78 57 210 57q180 0 242 -80q35 -45 45 -123q6 -68 12 -133h115v336q-211 78 -422 78q-322 0 -430 -217q-37 -76 -37 -174 q0 -160 107 -248q78 -63 258 -129q10 -4 49 -17q168 -55 238 -106q111 -80 110 -217q0 -143 -106 -219q-94 -68 -244 -68q-211 0 -272 86q-43 59 -54 217q-2 33 -6 86h-137v-370z" />
<glyph unicode="T" horiz-adv-x="1366" d="M66 1053h102q14 102 22 131q20 78 66 108q63 43 332 43v-1130q0 -94 -36 -116.5t-171 -22.5v-70q29 0 149 2l150 2h51q53 -2 101.5 -2t146.5 -2v70q-135 0 -166 20q-41 25 -41 119v1130q270 0 334 -41q41 -29 63 -110q4 -23 23 -131h102v360h-1228v-360z" />
<glyph unicode="U" horiz-adv-x="1593" d="M59 1348q129 0 162 -27q25 -25 25 -113v-770q0 -459 512 -458q309 0 454 110q156 117 156 404v714q0 88 25 111q33 29 159 29v69q-111 -4 -254 -4t-254 4v-69q158 0 193 -23q29 -20 29 -117v-716q0 -231 -106.5 -335t-338.5 -104q-205 0 -298 100.5t-93 307.5v747 q0 92 28.5 116t168.5 24v69q-127 -4 -289 -4h-66q-53 2 -73 2l-140 2v-69z" />
<glyph unicode="V" horiz-adv-x="1478" d="M33 1352q66 0 92 -11q41 -14 65 -61q18 -35 39 -92l445 -1188h137l461 1188q16 43 34.5 84t65.5 59q27 10 74 21v65q-98 -4 -223 -4t-224 4v-65q12 -2 27 -4q57 -6 82 -17q47 -16 51 -55q0 -4 2 -10v-13q0 -37 -10 -65l-344 -983l-352 983q-18 51 -19 94q0 57 131 66 q25 2 39 4v65q-127 -4 -287 -4t-286 4v-65z" />
<glyph unicode="W" d="M31 1352q90 0 127 -41q27 -29 51 -123l317 -1188h160l338 1249h4l324 -1249h159l342 1188q4 16 13 55q12 66 41.5 86.5t99.5 22.5v65q-94 -4 -213 -4t-213 4v-65q12 -2 27 -4q57 -6 82 -17q47 -16 51 -55q0 -4 2 -10v-13q0 -25 -10 -65l-244 -975h-4l-303 1200h-195 l-321 -1204h-4l-228 979q-14 61 -14 86q0 43 39 61q18 8 78 15q18 2 24 2v65q-119 -4 -264 -4q-147 0 -266 4v-65z" />
<glyph unicode="X" horiz-adv-x="1478" d="M31 -4q115 4 256 4q143 0 254 -4v70l-17 2q-74 8 -88 12q-59 16 -59 53q0 16 20 47l299 461l275 -385q29 -41 39 -61q23 -43 22 -72q0 -27 -57 -41q-12 -4 -92 -16h-9v-70q127 4 283 4t283 -4v70q-80 6 -121 32q-31 23 -84 97l-2 4l-416 589l264 351q8 8 27 35 q72 98 117 129q57 41 164 49v65q-111 -4 -252 -4t-252 4v-65q137 0 155 -45q0 -2 2 -7.5t2 -9.5q0 -16 -16 -41l-260 -397l-219 322q-66 96 -66 120q0 57 158 58h23v65q-131 -4 -295 -4q-166 0 -297 4v-65q94 0 153 -49q41 -31 107 -127q8 -12 37 -54l284 -409l-415 -549 q-43 -57 -91 -76q-33 -14 -116 -22v-70z" />
<glyph unicode="Y" horiz-adv-x="1478" d="M43 1352q109 -10 178 -78q37 -37 117 -164q25 -39 65 -102l195 -310q35 -55 43 -80.5t8 -89.5v-323q0 -94 -35.5 -116.5t-173.5 -22.5v-70q29 0 150 2l151 2h52q55 -2 103 -2t146 -2v70q-137 0 -168 20q-41 25 -40 119v315q0 68 43 135l286 455q8 14 37 61q53 92 90 123 q51 47 137 58v65q-98 -4 -221 -4t-221 4v-65q96 0 131 -31q14 -14 14 -39q0 -43 -36 -94l-281 -492l-315 521q-23 37 -23 55v10q8 43 53 57q20 6 86 11q31 2 33 2v65q-135 -4 -301 -4q-168 0 -303 4v-65z" />
<glyph unicode="Z" horiz-adv-x="1366" d="M66 0h1210v416h-129l-4 -45q-8 -100 -13 -119q-12 -80 -34 -113q-39 -53 -185 -53h-608l938 1286v41h-1089v-362h108q8 61 31 180q18 72 96 88q55 10 129 10h479l-929 -1288v-41z" />
<glyph unicode="[" horiz-adv-x="681" d="M213 -256h369v68h-222v1646h222v68h-369v-1782z" />
<glyph unicode="\" horiz-adv-x="1241" d="M166 1526l772 -1546h147l-772 1546h-147z" />
<glyph unicode="]" horiz-adv-x="681" d="M102 -188v-68h369v1782h-369v-68h222v-1646h-222z" />
<glyph unicode="^" horiz-adv-x="1241" d="M104 582h144l373 667l370 -667h144l-447 831h-135z" />
<glyph unicode="_" horiz-adv-x="1024" d="M0 -217v-78h1024v78h-1024z" />
<glyph unicode="`" horiz-adv-x="681" d="M29 1360q0 -45 53 -74l321 -213h95l-310 324q-43 45 -77 45q-41 0 -60 -33q-22 -18 -22 -49z" />
<glyph unicode="a" horiz-adv-x="1593" d="M41 -4q106 4 242 4q135 0 241 -4v74q-80 0 -110 10q-59 18 -60 80q0 39 19 90l127 354h491l133 -342q2 -6 9 -20q25 -59 24 -92q0 -49 -74 -68q-49 -12 -104 -12v-74q127 4 283 4q154 0 280 -4v70q-102 0 -162 77q-35 43 -71 136l-4 10l-431 1124h-135l-440 -1069 q-2 -6 -16 -37l-50 -112q-23 -47 -36 -66q-43 -51 -123 -55q-18 -2 -33 -4v-74zM526 682l226 547l213 -547h-439z" />
<glyph unicode="b" horiz-adv-x="1273" d="M2 510l578 672l184 -211l-72 -94l-100 108l-500 -573zM10 1178l76 98h14l256 -309l-82 -95zM401 725l82 94l97 -108l503 592l84 -101l-575 -694zM819 727l76 92l272 -305l-75 -94z" />
<glyph unicode="c" horiz-adv-x="1155" d="M2 389l520 887l516 -887h-1036zM94 436h84l266 432l27 -45l-219 -387h80l190 307l176 -307h88l-223 387l33 45q123 -193 252 -424q2 -2 12 -8h86l-352 592l-72 -119l-78 119z" />
<glyph unicode="d" horiz-adv-x="1060" d="M8 446l185 318l20 -35l-139 -237q-2 -8 12 -9h68l170 265l18 -29l-160 -273h-174zM18 1116h152l102 -180l-14 -27l-117 174h-78l220 -362l-19 -37zM236 834l233 401l182 -315l-16 -27l-158 266l-219 -354q-22 13 -22 29zM295 831l18 29l164 -268l92 149l15 -26l-111 -189 zM303 614l19 27l151 -254l221 358q8 0 23 -30l-240 -404zM365 815l108 189l174 -302l-14 -26l-154 252l-98 -140zM403 762zM610 815l170 297h172l-194 -332l-25 35l168 264h-86l-190 -291zM674 604q10 16 10 31l109 -166l73 6l-192 348l10 25l244 -408h-156z" />
<glyph unicode="e" horiz-adv-x="1105" d="M6 805h74l158 -275l168 275h77l-239 -412zM262 1227h471l-43 -74l-301 -2l143 -260l-36 -70zM504 803l467 2l-238 -404l-41 66l156 270l-299 -2z" />
<glyph unicode="f" horiz-adv-x="1095" d="M6 791l154 2l28 -56h-84l138 -221l166 279h77l-239 -414zM254 1233h487l-75 -127h-76l35 63h-263l166 -297l-34 -55zM508 799h469l-238 -406l-75 125l32 55l39 -61l135 227l-331 4z" />
<glyph unicode="g" horiz-adv-x="978" d="M8 999l64 -16l71 -207l168 47l86 -26l-291 -99zM82 467q31 39 59 65h211v162l60 80v-307h-330zM219 1077l258 189v-66l-176 -131l115 -170v-82zM432 809l182 240l254 -177l-55 -22l-186 117q-41 -49 -117 -144q-17 -4 -78 -14zM438 782l293 -96l-90 -311l-53 59l74 209 l-197 66q-9 22 -27 73z" />
<glyph unicode="h" horiz-adv-x="1081" d="M6 500q10 102 75.5 201.5t156.5 152.5q4 70 41 152q57 94 108 135q37 29 113 55q104 -25 174 -131q61 -92 76 -211q201 -133 233 -354h-129q-4 84 -88 174t-168 110l4 41q-33 168 -102 199q-43 -14 -78 -84q-29 -59 -37 -115l2 -41q-84 -31 -162 -112q-80 -88 -90 -172 h-129z" />
<glyph unicode="i" horiz-adv-x="1243" d="M-2 1063v92h113v-78q0 -90 97 -256t198 -221l67 47l68 -84l-129 -102q-150 66 -285 266q-129 195 -129 336zM322 1155h120l2 -111q47 -274 277 -446q233 164 280 457l3 100h126v-88l-10 -61q-29 -170 -137.5 -319.5t-261.5 -229.5q-154 90 -262 245q-121 174 -129 312z M578 776q29 37 66.5 133.5t39.5 153.5l4 92h123l-12 -127q-51 -244 -150 -338z" />
<glyph unicode="j" horiz-adv-x="999" d="M6 965v88q115 -35 252 -172q125 -123 191 -244q33 111 174 246q133 131 249 176v-88q-154 -76 -270 -234q-106 -143 -135 -286l-18 -93q-29 184 -153 357.5t-290 249.5zM6 1130v89q238 -70 443 -304q164 219 423 312v-92q-115 -45 -234.5 -148.5t-188.5 -214.5 q-63 106 -196.5 214.5t-246.5 143.5z" />
<glyph unicode="k" horiz-adv-x="1122" d="M14 500l398 710l84 -151l-50 -90l-32 41l-295 -510h-105zM346 731l264 479l396 -710h-121l-275 508l-159 -277h-105zM526 807l56 94l94 -170h-107zM891 674z" />
<glyph unicode="l" horiz-adv-x="1167" d="M0 811l197 160l63 -62l-115 -98l385 -293l154 115l57 -64l-211 -168zM84 510l115 117l77 -56l-120 -125zM100 1110l60 64l362 -363l-143 -143l-70 53l90 90zM311 1065l219 174l535 -428l-203 -143l-57 59l115 84l-390 313l-155 -118zM543 811l149 152l70 -60l-94 -92 l293 -289v-12l-66 -49l-233 235zM788 1075l113 113l62 -60l-111 -106z" />
<glyph unicode="m" horiz-adv-x="755" d="M-2 723q29 23 80 65q-4 6 -80 68q29 31 57 68q31 -23 90 -64q72 84 121 213q10 41 31 115q39 -121 57 -164q41 -90 109 -162q29 25 86 62q25 -23 65 -66q-27 -20 -77 -63q45 -43 77 -58q-2 -16 -22.5 -34.5t-42.5 -38.5q-29 23 -82 57q-68 -78 -170 -326 q-37 197 -145 326q-12 -4 -97 -64q-20 21 -57 66zM213 788q12 -10 92 -124q35 43 96 127q-33 39 -96 127q-20 -32 -92 -130z" />
<glyph unicode="n" horiz-adv-x="1314" d="M6 496l494 721l90 -130l-68 -96l-30 39l-367 -534h-119zM217 494l490 716l499 -716h-127l-362 528l-367 -528h-133zM621 844l67 96l301 -446h-123z" />
<glyph unicode="o" horiz-adv-x="1071" d="M-2 834q0 203 141.5 343t343.5 140q203 0 344.5 -140.5t141.5 -342.5q0 -203 -141.5 -344.5t-344.5 -141.5t-344 141.5t-141 344.5zM209 954l272 -489l287 489h-84l-203 -338l-190 338h-82zM242 1130l239 -415l248 415h-88l-160 -266l-155 266h-84z" />
<glyph unicode="p" horiz-adv-x="600" d="M4 918h70l174 -295l174 295h74l-248 -429zM35 1071h71l142 -231l137 231h74l-211 -362z" />
<glyph unicode="q" horiz-adv-x="905" d="M-4 840q0 170 118.5 288.5t288.5 118.5t289 -118.5t119 -288.5t-119 -289t-289 -119t-288.5 119t-118.5 289zM92 1036l307 -536l320 536h-55l-265 -432l-249 432h-58zM147 1077l252 -436l267 436h-58l-209 -332l-192 332h-60zM211 1120l188 -338l209 338h-61l-148 -229 l-127 229h-61z" />
<glyph unicode="r" horiz-adv-x="1060" d="M0 836v288h109v-215l120 -67l138 67v215h106v-288l-244 -113zM246 446v261h104v-193l123 -68l133 68v193h107v-261l-240 -120zM496 836v288h100v-215l127 -71l119 67v219h114v-288l-233 -115z" />
<glyph unicode="s" horiz-adv-x="1167" d="M8 811h119l135 -227l139 227h109l-248 -432zM526 829l262 445l256 -445h-108l-152 242l-141 -242h-117z" />
<glyph unicode="t" horiz-adv-x="1232" d="M16 1120h177l337 -346l-84 -86zM152 705h172l82 -89l512 504h174l-672 -686zM565 549l94 96l23 -22l82 82h180l-258 -271z" />
<glyph unicode="u" horiz-adv-x="1261" d="M6 1069h86l203 -438l184 438h96l-280 -651zM297 1069h86l35 -70l-39 -98zM455 723l47 96l94 -188l82 192l43 -92l-125 -313zM606 1069h80l203 -438l192 438h86l-278 -651zM752 1001l30 68h78l-69 -164z" />
<glyph unicode="v" horiz-adv-x="1150" d="M-2 1112h111l317 -450l25 28l57 -80l-84 -121zM80 465l166 248l57 -84l-108 -164h-115zM186 1112h117l96 -147l-57 -80zM334 829l184 265l84 -129l-53 -74l-27 35l-131 -181zM428 764l57 74l131 -181l33 43l51 -67l-90 -144zM530 811l211 301h113l-270 -377zM631 764 l61 78l254 -377h-110zM737 817l207 295h103l-259 -362z" />
<glyph unicode="w" horiz-adv-x="1306" d="M8 1061h103l192 -191l189 191h104l-293 -293zM322 692h108l184 -186l187 186h100l-287 -286zM631 1061h102l182 -180l183 180h100l-283 -283z" />
<glyph unicode="x" horiz-adv-x="1093" d="M-2 999l29 131l444 -256v-139zM57 1188l78 78l303 -172l-106 -64zM313 989l488 283l100 -90l-465 -267zM319 442v349l132 -72l-2 -307zM502 403v525l119 61l-3 -547zM643 836v122l285 175l33 -121z" />
<glyph unicode="y" horiz-adv-x="1116" d="M6 1200h488l-50 -90h-268l131 -231l-55 -91zM260 774h107l131 -219l133 219h102l-235 -409zM512 1200h473l-233 -401l-56 80l125 231h-264z" />
<glyph unicode="z" horiz-adv-x="1173" d="M4 1178v51q18 -2 102 -2q14 -438 408 -721q399 254 404 721h114q1 -15 1 -31q0 -171 -83 -365q-45 -102 -182 -268q-164 -197 -254 -196q-18 0 -145 98q-143 111 -254 324t-111 389zM170 1227h113q14 -309 231 -514q209 193 227 514h119q-4 -426 -346 -658 q-317 248 -344 658z" />
<glyph unicode="{" horiz-adv-x="681" d="M119 631q96 -27 129 -84q27 -47 26 -156v-334q0 -180 68 -246.5t250 -66.5v4q-170 35 -170 254v344q0 125 -27 180q-35 76 -139 103v4q102 27 137 96q29 55 29 172v365q0 111 33 166q39 68 137 90v4q-172 0 -242 -58q-76 -63 -76 -231v-369q0 -102 -30 -151 q-33 -57 -125 -86z" />
<glyph unicode="|" horiz-adv-x="1241" d="M553 -20h135v1546h-135v-1546z" />
<glyph unicode="}" horiz-adv-x="681" d="M90 -252v-4q182 0 250 66.5t68 246.5v334q0 109 26 156q33 57 129 84q-92 29 -125 86q-31 49 -30 151v369q0 168 -76 231q-70 57 -242 58v-4q98 -23 137 -90q33 -55 33 -166v-365q0 -117 29 -172q35 -70 137 -96v-4q-104 -27 -139 -103q-27 -55 -27 -180v-344 q0 -219 -170 -254z" />
<glyph unicode="~" horiz-adv-x="1241" d="M104 426l72 -82l4 8q35 68 96 133q45 47 117 47q39 0 152 -43q12 -4 25.5 -10t33.5 -14q178 -76 244 -76q172 0 289 223l-72 82q-90 -176 -215 -176q-35 0 -82 19q-39 12 -125 51l-8 4l-2 2q-164 70 -238 70q-160 0 -291 -238z" />
<glyph unicode="&#xa1;" horiz-adv-x="681" d="M229 817q0 -57 30 -96t85 -39t85 39t30 96t-30 96t-85 39t-85 -39t-30 -96zM231 -371q0 -141 113 -141t113 141q0 6 -2 17v20l-66 752q0 63 -45 129q-45 -61 -45 -129v-6l-66 -766q-2 -11 -2 -17z" />
<glyph unicode="&#xa2;" horiz-adv-x="1138" d="M152 481q0 -199 49 -305q66 -141 235 -178l-74 -238h72l72 226q41 -6 92 -6q238 0 363 71l14 8v240h-103q0 -16 -4 -43q-6 -55 -12 -82q-12 -47 -33 -74q-45 -55 -186 -55q-63 0 -109 14l254 815q61 -35 78 -124v-5l8 -83h107v217q-49 49 -168 73l61 197h-71l-58 -186 q-61 10 -131 10q-248 0 -354 -125q-102 -115 -102 -367zM334 481q0 147 18 221q31 123 123 172q61 33 160 33q39 0 84 -10l-254 -811q-86 53 -115 176q-16 76 -16 219z" />
<glyph unicode="&#xa3;" horiz-adv-x="1138" d="M-8 39q2 -51 51 -53q61 -4 164 98q139 0 336 -49l16 -4q188 -47 264 -47q121 0 224 41v280h-64q-6 -86 -27 -119q-29 -45 -104 -45q-74 0 -218.5 10.5t-217.5 10.5q-55 0 -166 -12q152 152 188 331q12 59 25 148h368v78h-362l2 38q6 127 12 181q10 98 35 176 q59 197 211 196q145 0 145 -157q0 -6 3 -23q0 -70 30 -76q16 -4 41 -4h33q59 0 59 72q0 129 -88 197q-80 61 -213 61q-154 0 -274 -117q-127 -123 -160 -387q-8 -68 -14 -157h-240v-78h234q0 -242 -52 -385q-23 -59 -55 -105q-141 -10 -164 -45q-24 -24 -22 -55z" />
<glyph unicode="&#xa4;" horiz-adv-x="1138" d="M51 295l105 -105l108 109q131 -106 309 -106q174 0 301 106l109 -109l102 105l-108 108q102 123 102 299q0 180 -106 304l110 106l-104 107l-109 -109q-125 100 -295 100q-180 0 -309 -104l-110 113l-105 -107l111 -111q-100 -117 -101 -303q0 -162 99 -295zM227 698 q0 147 101.5 246.5t246.5 99.5q139 0 238.5 -101t99.5 -241q0 -141 -99 -242.5t-241 -101.5q-145 0 -245.5 98.5t-100.5 241.5z" />
<glyph unicode="&#xa5;" horiz-adv-x="1138" d="M12 1288q88 -6 152 -82q29 -35 90 -155q29 -53 47 -90l117 -220h-250v-77h289q41 -68 41 -168h-330v-78h330v-223q0 -88 -21 -107q-29 -25 -147 -25v-67q23 0 121 2l120 2h41q43 -2 82 -2t119 -2v67q-115 0 -141 25q-25 18 -25 107v223h330v78h-330q0 84 33 129l20 39 h277v77h-238l187 351q47 106 69 135q47 61 129 61v68q-109 -6 -178 -4q-70 -2 -178 4v-68q117 0 117 -67q0 -29 -29 -88l-227 -469l-203 393l-20 41q-47 96 -48 127q0 55 138 63v68q-106 -4 -242 -4q-135 0 -242 4v-68z" />
<glyph unicode="&#xa6;" horiz-adv-x="1241" d="M553 -20h135v616h-135v-616zM553 909h135v617h-135v-617z" />
<glyph unicode="&#xa7;" horiz-adv-x="1138" d="M133 627q0 -135 158 -228q45 -27 104 -59q25 -12 64 -35l184 -108q131 -98 131 -228q0 -102 -64.5 -161.5t-166.5 -59.5q-92 0 -143.5 56.5t-51.5 148.5q0 6 2 16v17q0 49 -80 49q-61 0 -61 -33v-18l-2 -19q0 -274 342 -276q164 0 264 91t100 253q0 135 -75 207 q158 88 157 249q0 154 -155 252l-105 60l-14 8q-221 125 -277 178q-80 70 -79 180q0 90 61 152.5t152 62.5q180 0 192 -221q2 -33 66 -33q74 0 73 41q-2 143 -102 215q-88 61 -217 60q-172 -2 -268 -86q-100 -90 -101 -260q0 -117 86 -207q-174 -78 -174 -264zM250 694 q0 102 98 152q41 -29 127 -84l195 -111q4 -2 37 -20q88 -51 118 -80q63 -55 64 -121q0 -63 -68 -129l-22 -22l-137 92l-304 178q-108 63 -108 145z" />
<glyph unicode="&#xa8;" horiz-adv-x="681" d="M25 1282q0 -45 31.5 -76.5t76.5 -31.5t77 31.5t32 76.5t-32 78t-77 33t-76.5 -33t-31.5 -78zM440 1282q0 -45 33 -76.5t78 -31.5q43 0 75.5 32.5t32.5 75.5q0 45 -31.5 78t-76.5 33t-78 -33t-33 -78z" />
<glyph unicode="&#xa9;" horiz-adv-x="1529" d="M49 709q0 -219 120 -403.5t318 -268.5q131 -57 277 -57q301 0 510 215t209 514q0 223 -119 407t-322 273q-131 55 -278 55q-301 0 -508 -218t-207 -517zM162 709q0 184 101.5 342.5t268.5 232.5q109 47 232 47q254 0 430 -184t176 -438t-178 -435.5t-428 -181.5 t-426 183.5t-176 433.5zM383 698q0 -174 104.5 -287.5t276.5 -113.5q106 0 194 45q96 51 134 143l-54 23l-16 -29q-59 -102 -199 -102q-135 0 -207 119q-57 96 -57 241q0 123 59 209q66 96 185 96q172 0 198 -198h66v213q-145 57 -281 57q-182 0 -292.5 -116t-110.5 -300z " />
<glyph unicode="&#xaa;" horiz-adv-x="614" d="M12 651h590v78h-590v-78zM12 991q0 -170 215 -170q96 0 166 58v-50h209v39q-61 0 -80 13q-25 16 -24 73v269q0 111 -56 153q-47 37 -161 37q-219 0 -238 -131q0 -59 43 -59q57 0 57 30q-4 14 -4 29q0 90 125 90t125 -92v-123h-49q-16 0 -39 2h-20q-269 0 -269 -168z M127 989q0 129 149 129h19q10 -2 20 -2h74v-129l2 -10q0 -106 -149 -111q-115 -4 -115 123z" />
<glyph unicode="&#xab;" horiz-adv-x="1138" d="M195 481l313 -383h80v13l-252 397l252 401v13h-80l-313 -385v-56zM555 481l313 -383h80v13l-252 397l252 401v13h-80l-313 -385v-56z" />
<glyph unicode="&#xac;" horiz-adv-x="1241" d="M104 651h902v-422h131v553h-1033v-131z" />
<glyph unicode="&#xad;" horiz-adv-x="1241" d="M104 453h1033v131h-1033v-131z" />
<glyph unicode="&#x2212;" horiz-adv-x="1241" d="M104 453h1033v131h-1033v-131z" />
<glyph unicode="&#xae;" horiz-adv-x="1529" d="M49 715q0 -223 120 -407.5t323 -270.5q131 -57 276 -57q301 0 508 218t207 517q0 219 -120 403.5t-319 270.5q-131 55 -276 55q-301 0 -510 -215t-209 -514zM162 715q0 186 102.5 339.5t272.5 229.5q111 47 231 47q182 0 334.5 -104.5t222.5 -274.5q45 -113 45 -237 q0 -188 -99.5 -344t-269.5 -230q-111 -49 -233 -49q-254 0 -430 184.5t-176 438.5zM436 338h322v43q-14 0 -25 2q-43 4 -53 12t-10 49v248h30q90 0 119 -57q27 -63 86 -189q20 -45 41 -71.5t51 -32.5l13 -4h141v43q-47 4 -76 43q-16 20 -43 82q-6 14 -14 33l-2 4 q-43 86 -60 108q-41 57 -98 70v4q88 12 144.5 67.5t56.5 141.5q0 123 -98 164q-61 27 -209 26h-314v-43h31q37 0 47 -11t10 -48v-586q0 -33 -9 -42t-44 -13h-37v-43zM670 745v254q0 76 35 76h43q168 0 167 -160q0 -170 -206 -170h-39z" />
<glyph unicode="&#xaf;" horiz-adv-x="681" d="M55 1155h574v121h-574v-121z" />
<glyph unicode="&#x2c9;" horiz-adv-x="681" d="M55 1155h574v121h-574v-121z" />
<glyph unicode="&#xb0;" horiz-adv-x="819" d="M102 993q0 -127 90.5 -217t217.5 -90q129 0 218 90t89 217t-90 217t-217 90t-217.5 -90t-90.5 -217zM184 993q0 94 64.5 160t159.5 66q94 0 160.5 -66t66.5 -160t-65.5 -159.5t-159.5 -65.5t-160 65.5t-66 159.5z" />
<glyph unicode="&#xb1;" horiz-adv-x="1241" d="M104 0h1033v131h-1033v-131zM104 582h451v-322h131v322h451v131h-451v319h-131v-319h-451v-131z" />
<glyph unicode="&#xb2;" horiz-adv-x="681" d="M72 520h538v221h-47l-4 -24q-10 -59 -27.5 -74.5t-78.5 -15.5h-289l133 116q18 16 41 35q96 80 131 113q70 70 104 137q25 47 25 92q0 180 -256 180q-242 0 -252 -157v-10v-13q0 -49 25 -49h47q33 0 33 53q14 70 41.5 91.5t99.5 21.5q106 0 106 -127q0 -84 -63 -164 q-33 -43 -176 -186l-19 -19l-112 -110v-111z" />
<glyph unicode="&#xb3;" horiz-adv-x="681" d="M74 680q4 -172 231 -172q303 0 303 227q0 168 -168 197v4q145 35 146 174q0 190 -248 190q-246 0 -246 -182q0 -29 29 -28h41q33 0 33 24l4 21q4 117 110 116q4 0 10 -2h13q66 -6 90 -43q20 -29 20 -100q0 -90 -28.5 -121t-118.5 -35q-14 0 -57 4v-65q4 2 18 4q43 8 59 8 q88 0 119 -41q25 -35 25 -127t-31 -129q-37 -43 -125 -43q-115 0 -115 101q0 14 -2 18q0 51 -41 51h-30q-41 0 -41 -51z" />
<glyph unicode="&#xb4;" horiz-adv-x="681" d="M184 1073h95l321 213q53 29 53 74q0 31 -22 49q-18 33 -58 33q-37 0 -79 -45z" />
<glyph unicode="&#xb5;" />
<glyph unicode="&#x3bc;" />
<glyph unicode="&#xb6;" horiz-adv-x="1286" d="M102 1024q0 -195 109 -297q121 -119 289 -104l73 6v-852h-157v-78h727v78h-131v1566h129v70h-518q-301 0 -411 -88t-110 -301zM379 944v141q0 127 33 185q45 74 161 73v-655q-115 0 -159 76q-35 59 -35 180zM702 -223v1566h181v-1566h-181z" />
<glyph unicode="&#xb7;" horiz-adv-x="569" d="M156 520q0 -51 38.5 -90t90.5 -39q51 0 89 39t38 90t-38 89t-89 38t-90 -38t-39 -89z" />
<glyph unicode="&#x2219;" horiz-adv-x="569" d="M156 520q0 -51 38.5 -90t90.5 -39q51 0 89 39t38 90t-38 89t-89 38t-90 -38t-39 -89z" />
<glyph unicode="&#xb8;" horiz-adv-x="1024" d="M299 -389q86 -33 176 -33h10q8 -2 13 -2q78 0 149 47q80 53 78 127q0 68 -47 106t-117 38q-31 0 -65 -9l41 115h-70l-76 -182l15 -13q39 12 73 13q94 0 92 -72q-2 -94 -118 -94q-39 0 -121 20z" />
<glyph unicode="&#xb9;" horiz-adv-x="681" d="M78 1096q78 18 221 125q8 6 12 8v-574q0 -47 -12 -63.5t-55 -18.5q-31 -2 -99 -2v-41q100 2 228 2q125 0 233 -2v41q-109 0 -135 15q-20 8 -20 69v645h-127q-129 -104 -246 -137v-67z" />
<glyph unicode="&#xba;" horiz-adv-x="684" d="M39 651h606v78h-606v-78zM39 1116q0 -297 303 -297t303 297t-303 297t-303 -297zM160 1116q0 127 30 180q39 76 152 76q115 0 156 -78q27 -55 26 -178q0 -127 -28 -182q-41 -74 -154 -74q-117 0 -154 78q-28 55 -28 178z" />
<glyph unicode="&#xbb;" horiz-adv-x="1138" d="M180 94h80l313 385v58l-313 381h-80v-13l252 -397l-252 -402v-12zM541 94h80l313 385v58l-313 381h-80v-13l252 -397l-252 -402v-12z" />
<glyph unicode="&#xbc;" horiz-adv-x="1708" d="M72 1096q78 18 221 125q8 6 12 8v-574q0 -47 -12 -63.5t-55 -18.5q-31 -2 -99 -2v-41q100 2 228 2q125 0 233 -2v41q-109 0 -135 15q-20 8 -21 69v645h-127q-129 -104 -245 -137v-67zM465 0h104l793 1300h-102zM993 211h379v-90q0 -63 -47 -80q-20 -6 -106 -6v-39 q92 2 206 2q117 0 211 -2v39q-84 0 -100 6q-37 14 -37 80v90h125l12 90h-137v465h-139q-147 -205 -367 -485v-70zM1104 301l268 371v-371h-268z" />
<glyph unicode="&#xbd;" horiz-adv-x="1708" d="M72 1096q78 18 221 125q8 6 12 8v-574q0 -47 -12 -63.5t-55 -18.5q-31 -2 -99 -2v-41q100 2 228 2q125 0 233 -2v41q-109 0 -135 15q-20 8 -21 69v645h-127q-129 -104 -245 -137v-67zM465 0h104l793 1300h-102zM1096 0h538v221h-47l-4 -24q-10 -59 -27.5 -75t-78.5 -16 h-289l133 117q18 16 41 35q96 80 131 113q70 70 104 137q25 47 25 92q0 180 -256 180q-242 0 -252 -157v-11v-12q0 -49 25 -49h47q33 0 33 53q4 12 4 21q14 61 42.5 82.5t94.5 21.5q106 0 106 -139q0 -84 -63 -164q-33 -43 -176 -186l-19 -19l-112 -110v-111z" />
<glyph unicode="&#xbe;" horiz-adv-x="1708" d="M84 680q4 -172 231 -172q303 0 303 227q0 168 -167 197v4q145 35 145 174q0 190 -248 190q-246 0 -246 -182q0 -29 29 -28h41q33 0 33 24l4 21q4 117 110 116q4 0 11 -2h12q66 -6 90 -43q20 -29 21 -100q0 -90 -29 -121t-119 -35q-14 0 -57 4v-65q4 2 18 4q43 8 60 8 q88 0 118 -41q25 -35 25 -127t-31 -129q-37 -43 -125 -43q-115 0 -114 101q0 14 -2 18q0 51 -41 51h-31q-41 0 -41 -51zM451 0h104l793 1300h-103zM983 211h379v-90q0 -63 -47 -80q-20 -6 -107 -6v-39q92 2 207 2q117 0 211 -2v39q-84 0 -100 6q-37 14 -37 80v90h125l12 90 h-137v465h-139q-147 -205 -367 -485v-70zM1094 301l268 371v-371h-268z" />
<glyph unicode="&#xbf;" horiz-adv-x="909" d="M94 -225q0 -141 111 -219q96 -68 244 -68q156 0 251 70q109 78 109 227q0 45 -27 45h-96q-31 0 -35 -45v-8q0 -227 -178 -228q-193 0 -192 213q0 164 73 213q55 39 197 39h12l-39 432q-8 92 -43 93q-25 0 -45 -80v-4l-59 -398q-129 -12 -203 -82q-80 -75 -80 -200z M367 817q0 -57 29.5 -96t84.5 -39t85 39t30 96t-29.5 96t-85.5 39q-55 0 -84.5 -39t-29.5 -96z" />
<glyph unicode="&#xc0;" />
<glyph unicode="&#xc1;" />
<glyph unicode="&#xc2;" />
<glyph unicode="&#xc3;" />
<glyph unicode="&#xc4;" />
<glyph unicode="&#xc5;" />
<glyph unicode="&#xc6;" />
<glyph unicode="&#xc7;" />
<glyph unicode="&#xc8;" />
<glyph unicode="&#xc9;" />
<glyph unicode="&#xca;" />
<glyph unicode="&#xcb;" />
<glyph unicode="&#xcc;" />
<glyph unicode="&#xcd;" />
<glyph unicode="&#xce;" />
<glyph unicode="&#xcf;" />
<glyph unicode="&#xd0;" />
<glyph unicode="&#xd1;" />
<glyph unicode="&#xd2;" />
<glyph unicode="&#xd3;" />
<glyph unicode="&#xd4;" />
<glyph unicode="&#xd5;" />
<glyph unicode="&#xd6;" />
<glyph unicode="&#xd7;" />
<glyph unicode="&#xd8;" />
<glyph unicode="&#xd9;" />
<glyph unicode="&#xda;" />
<glyph unicode="&#xdb;" />
<glyph unicode="&#xdc;" />
<glyph unicode="&#xdd;" />
<glyph unicode="&#xde;" />
<glyph unicode="&#xdf;" />
<glyph unicode="&#xe0;" />
<glyph unicode="&#xe1;" />
<glyph unicode="&#xe2;" />
<glyph unicode="&#xe3;" />
<glyph unicode="&#xe4;" />
<glyph unicode="&#xe5;" />
<glyph unicode="&#xe6;" />
<glyph unicode="&#xe7;" />
<glyph unicode="&#xe8;" />
<glyph unicode="&#xe9;" />
<glyph unicode="&#xea;" />
<glyph unicode="&#xeb;" />
<glyph unicode="&#xec;" />
<glyph unicode="&#xed;" />
<glyph unicode="&#xee;" />
<glyph unicode="&#xef;" />
<glyph unicode="&#xf0;" />
<glyph unicode="&#xf1;" />
<glyph unicode="&#xf2;" />
<glyph unicode="&#xf3;" />
<glyph unicode="&#xf4;" />
<glyph unicode="&#xf5;" />
<glyph unicode="&#xf6;" />
<glyph unicode="&#xf7;" />
<glyph unicode="&#xf8;" />
<glyph unicode="&#xf9;" />
<glyph unicode="&#xfa;" />
<glyph unicode="&#xfb;" />
<glyph unicode="&#xfc;" />
<glyph unicode="&#xfd;" />
<glyph unicode="&#xfe;" />
<glyph unicode="&#xff;" />
<glyph unicode="&#x152;" d="M59 711q0 -346 131 -529q143 -203 478 -202q106 0 241 45q154 49 195 125h4v-150h866v430h-108q-12 -113 -17 -141q-16 -94 -43 -131q-41 -55 -196 -56h-320v611h125q145 0 176 -27q35 -35 39 -178h90v487h-90q0 -143 -35.5 -173.5t-179.5 -30.5h-125v538h320 q162 0 202 -45q33 -39 52 -207q0 -6 2 -28h108v364h-866v-131l-21 23q-76 84 -186 114q-84 25 -221 25q-322 0 -471.5 -195.5t-149.5 -537.5zM268 662q0 334 62 491q88 227 366 227q201 0 297 -82q106 -88 107 -284v-443q0 -246 -86 -372q-100 -147 -334 -148 q-233 0 -332 193q-80 156 -80 418z" />
<glyph unicode="&#x153;" horiz-adv-x="1705" d="M92 510q0 -266 94 -391q102 -139 357 -139q254 0 350 137q92 -133 336 -133q150 0 248 73q109 82 120 226v6l2 4q0 35 -67 35q-70 0 -72 -43q-23 -131 -67 -181q-53 -57 -181 -57h-14q-10 -2 -14 -2q-119 0 -166 133q-39 104 -39 295h637q-8 182 -35 266 q-43 143 -160 199q-78 35 -202 35q-193 0 -322 -142q-113 141 -344 142q-461 0 -461 -463zM274 477q0 197 45 297q57 129 224 129q168 0 223 -121q45 -96 45 -305q0 -145 -16 -217q-27 -127 -109 -176q-55 -33 -143 -33q-166 0 -224 129q-45 100 -45 297zM977 543 q4 174 41 250q55 113 205 112q125 0 172 -123q33 -88 32 -239h-450z" />
<glyph unicode="&#x178;" horiz-adv-x="1478" d="M43 1352q109 -10 178 -78q37 -37 117 -164q25 -39 65 -102l195 -310q35 -55 43 -80.5t8 -89.5v-323q0 -94 -35.5 -116.5t-173.5 -22.5v-70q29 0 150 2l151 2h52q55 -2 103 -2t146 -2v70q-137 0 -168 20q-41 25 -40 119v315q0 68 43 135l286 455q8 14 37 61q53 92 90 123 q51 47 137 58v65q-98 -4 -221 -4t-221 4v-65q96 0 131 -31q14 -14 14 -39q0 -43 -36 -94l-281 -492l-315 521q-23 37 -23 55v10q8 43 53 57q20 6 86 11q31 2 33 2v65q-135 -4 -301 -4q-168 0 -303 4v-65zM455 1722q0 -45 31.5 -76.5t76.5 -31.5t77 31.5t32 76.5t-32 78 t-77 33t-76.5 -33t-31.5 -78zM870 1722q0 -45 33 -76.5t78 -31.5q43 0 76 32.5t33 75.5q0 45 -32 78t-77 33t-78 -33t-33 -78z" />
<glyph unicode="&#x2c6;" horiz-adv-x="681" d="M16 1073h88l238 211l236 -211h88l-254 346h-142z" />
<glyph unicode="&#x2dc;" horiz-adv-x="681" d="M-8 1124h67q16 98 111 99q27 0 86 -27q4 -2 18 -8l25 -12q98 -49 164 -50q176 0 229 230h-69q-6 -41 -39 -73t-72 -32q-37 0 -106 35l-13 6q-104 57 -172 58q-92 0 -152.5 -65t-76.5 -161z" />
<glyph unicode="&#x2000;" horiz-adv-x="948" />
<glyph unicode="&#x2001;" horiz-adv-x="1898" />
<glyph unicode="&#x2002;" horiz-adv-x="948" />
<glyph unicode="&#x2003;" horiz-adv-x="1898" />
<glyph unicode="&#x2004;" horiz-adv-x="632" />
<glyph unicode="&#x2005;" horiz-adv-x="473" />
<glyph unicode="&#x2006;" horiz-adv-x="315" />
<glyph unicode="&#x2007;" horiz-adv-x="315" />
<glyph unicode="&#x2008;" horiz-adv-x="235" />
<glyph unicode="&#x2009;" horiz-adv-x="378" />
<glyph unicode="&#x200a;" horiz-adv-x="104" />
<glyph unicode="&#x2010;" horiz-adv-x="681" d="M90 432h502v152h-502v-152z" />
<glyph unicode="&#x2011;" horiz-adv-x="681" d="M90 432h502v152h-502v-152z" />
<glyph unicode="&#x2012;" horiz-adv-x="681" d="M90 432h502v152h-502v-152z" />
<glyph unicode="&#x2013;" horiz-adv-x="1138" d="M0 442h1139v133h-1139v-133z" />
<glyph unicode="&#x2014;" d="M0 442h2048v133h-2048v-133z" />
<glyph unicode="&#x2018;" horiz-adv-x="569" d="M133 1073q0 -66 31 -110q35 -51 98 -52q53 0 84 38t31 91t-33 86t-86 33h-12q-10 -2 -15 -2q2 72 53.5 133.5t123.5 87.5l-33 56q-123 -68 -178 -144q-64 -88 -64 -217z" />
<glyph unicode="&#x2019;" horiz-adv-x="569" d="M152 967l32 -56q123 68 178 144q63 88 64 217q0 66 -33 114t-96 48q-53 0 -84 -38t-31 -91t33 -86t86 -33h12q10 2 15 2q-2 -72 -53 -132t-123 -89z" />
<glyph unicode="&#x201a;" horiz-adv-x="569" d="M147 -211l33 -55q242 129 242 358q0 74 -28.5 111t-100.5 49q-55 0 -86 -37t-31 -92q0 -80 66 -107q16 -10 39 -10q8 0 20 2h21q0 -70 -52.5 -130t-122.5 -89z" />
<glyph unicode="&#x201c;" horiz-adv-x="1024" d="M133 1073q0 -66 31 -110q35 -51 98 -52q53 0 84 38t31 91t-33 86t-86 33h-12q-10 -2 -15 -2q2 72 53.5 133.5t123.5 87.5l-33 56q-123 -68 -178 -144q-64 -88 -64 -217zM582 1073q0 -162 129 -162q51 0 82.5 39t31.5 90q0 53 -32.5 86t-85.5 33h-13q-10 -2 -14 -2 q0 127 154 213q8 2 22 8l-33 56q-123 -68 -178 -144q-63 -88 -63 -217z" />
<glyph unicode="&#x201d;" horiz-adv-x="1024" d="M168 967l33 -56q123 68 178 144q63 88 63 217q0 66 -32.5 114t-96.5 48q-53 0 -83.5 -38t-30.5 -91t32.5 -86t85.5 -33h13q10 2 14 2q-2 -72 -53 -132t-123 -89zM616 967l33 -56q123 68 178 144q63 88 64 217q0 66 -33 114t-96 48q-53 0 -84 -38t-31 -91t33 -86t86 -33 h12q10 2 15 2q-2 -72 -53.5 -132t-123.5 -89z" />
<glyph unicode="&#x201e;" horiz-adv-x="1024" d="M152 -211l32 -55q242 129 242 358q0 74 -28.5 111t-100.5 49q-55 0 -86 -37t-31 -92q0 -80 66 -107q16 -10 39 -10q8 0 20 2h21q0 -70 -52 -130t-122 -89zM600 -211l33 -55q242 129 241 358q0 74 -28.5 111t-100.5 49q-55 0 -85.5 -37t-30.5 -92q0 -80 65 -107 q16 -10 39 -10q8 0 21 2h20q0 -70 -52 -130t-122 -89z" />
<glyph unicode="&#x2022;" horiz-adv-x="1241" d="M268 707q0 -143 104.5 -248t248.5 -105q143 0 247.5 104.5t104.5 248.5q0 143 -104.5 247.5t-247.5 104.5t-248 -104.5t-105 -247.5z" />
<glyph unicode="&#x2026;" d="M227 115q0 -57 30 -96t85 -39t85 38.5t30 96.5q0 57 -30 96t-85 39t-85 -39t-30 -96zM911 115q0 -57 30 -96t85 -39t85 38.5t30 96.5q0 57 -30 96t-85 39t-85 -39t-30 -96zM1595 115q0 -57 30 -96t85 -39t85 38.5t30 96.5q0 57 -30 96t-85 39t-85 -39t-30 -96z" />
<glyph unicode="&#x202f;" horiz-adv-x="378" />
<glyph unicode="&#x2039;" horiz-adv-x="569" d="M80 481l313 -383h80v13l-250 397l250 401v13h-80l-313 -385v-56z" />
<glyph unicode="&#x203a;" horiz-adv-x="569" d="M76 94h80l313 385v58l-313 381h-80v-13l252 -397l-252 -402v-12z" />
<glyph unicode="&#x205f;" horiz-adv-x="473" />
<glyph unicode="&#x2122;" horiz-adv-x="2004" d="M72 1210h53q0 84 32.5 115t116.5 31h93v-631q0 -70 -29 -84q-14 -6 -100 -8v-47h389v47q-82 2 -99 10q-31 14 -30 82v631h92q84 0 116.5 -31t32.5 -115h54v203h-721v-203zM911 586h260v47q-66 4 -83 19.5t-17 78.5v588h4l305 -733h19l301 733h4v-588q0 -63 -17.5 -78.5 t-82.5 -19.5v-47h331v47q-66 4 -83 19.5t-17 78.5v565q0 43 9 58.5t48 15.5h43v43h-252l-256 -600l-253 600h-246v-43h30q39 0 48 -18q6 -10 6 -56v-565q0 -63 -17.5 -78.5t-83.5 -19.5v-47z" />
<glyph unicode="&#xe000;" horiz-adv-x="1270" d="M0 1270h1270v-1270h-1270v1270z" />
<glyph unicode="&#xfb01;" horiz-adv-x="2338" d="M1094 1063v92h113v-78q0 -90 97 -256t198 -221l67 47l68 -84l-129 -102q-150 66 -285 266q-129 195 -129 336zM1418 1155h120l2 -111q47 -274 277 -446q233 164 280 457l3 100h126v-88l-10 -61q-29 -170 -137.5 -319.5t-261.5 -229.5q-154 90 -262 245q-121 174 -129 312 zM1674 776q29 37 66.5 133.5t39.5 153.5l4 92h123l-12 -127q-51 -244 -150 -338zM6 791l154 2l28 -56h-84l138 -221l166 279h77l-239 -414zM254 1233h487l-75 -127h-76l35 63h-263l166 -297l-34 -55zM508 799h469l-238 -406l-75 125l32 55l39 -61l135 227l-331 4z" />
<glyph unicode="&#xfb02;" horiz-adv-x="2263" d="M1096 811l197 160l63 -62l-115 -98l385 -293l154 115l57 -64l-211 -168zM1180 510l115 117l77 -56l-120 -125zM1196 1110l60 64l362 -363l-143 -143l-70 53l90 90zM1407 1065l219 174l535 -428l-203 -143l-57 59l115 84l-390 313l-155 -118zM1639 811l149 152l70 -60 l-94 -92l293 -289v-12l-66 -49l-233 235zM1884 1075l113 113l62 -60l-111 -106zM6 791l154 2l28 -56h-84l138 -221l166 279h77l-239 -414zM254 1233h487l-75 -127h-76l35 63h-263l166 -297l-34 -55zM508 799h469l-238 -406l-75 125l32 55l39 -61l135 227l-331 4z" />
<glyph unicode="&#xfb03;" horiz-adv-x="3434" d="M2189 1063v92h113v-78q0 -90 97 -256t198 -221l67 47l68 -84l-129 -102q-150 66 -285 266q-129 195 -129 336zM2513 1155h120l2 -111q47 -274 277 -446q233 164 280 457l3 100h126v-88l-10 -61q-29 -170 -137.5 -319.5t-261.5 -229.5q-154 90 -262 245q-121 174 -129 312 zM2769 776q29 37 66.5 133.5t39.5 153.5l4 92h123l-12 -127q-51 -244 -150 -338zM1102 791l154 2l28 -56h-84l138 -221l166 279h77l-239 -414zM1350 1233h487l-75 -127h-76l35 63h-263l166 -297l-34 -55zM1604 799h469l-238 -406l-75 125l32 55l39 -61l135 227l-331 4z M6 791l154 2l28 -56h-84l138 -221l166 279h77l-239 -414zM254 1233h487l-75 -127h-76l35 63h-263l166 -297l-34 -55zM508 799h469l-238 -406l-75 125l32 55l39 -61l135 227l-331 4z" />
<glyph unicode="&#xfb04;" horiz-adv-x="3358" d="M2191 811l197 160l63 -62l-115 -98l385 -293l154 115l57 -64l-211 -168zM2275 510l115 117l77 -56l-120 -125zM2291 1110l60 64l362 -363l-143 -143l-70 53l90 90zM2502 1065l219 174l535 -428l-203 -143l-57 59l115 84l-390 313l-155 -118zM2734 811l149 152l70 -60 l-94 -92l293 -289v-12l-66 -49l-233 235zM2979 1075l113 113l62 -60l-111 -106zM1102 791l154 2l28 -56h-84l138 -221l166 279h77l-239 -414zM1350 1233h487l-75 -127h-76l35 63h-263l166 -297l-34 -55zM1604 799h469l-238 -406l-75 125l32 55l39 -61l135 227l-331 4zM6 791 l154 2l28 -56h-84l138 -221l166 279h77l-239 -414zM254 1233h487l-75 -127h-76l35 63h-263l166 -297l-34 -55zM508 799h469l-238 -406l-75 125l32 55l39 -61l135 227l-331 4z" />
</font>
</defs>
</svg>
